<svg width="24" height="22" viewBox="0 0 24 22" fill="none" xmlns="http://www.w3.org/2000/svg">
<path d="M9.5 13.5002C9.3 13.5002 9.1 13.5502 8.95 13.6502C8.9 13.5502 8.9 13.5002 8.85 13.4002C9.25 13.2502 9.5 12.9002 9.5 12.4502C9.5 11.9002 9.05 11.4502 8.5 11.4502C8.5 11.3502 8.5 11.3002 8.45 11.2002C8.45 11.1002 8.5 11.0502 8.5 10.9502C8.5 10.4002 8.05 9.9502 7.5 9.9502C7.15 9.9502 6.8 10.1502 6.65 10.4502C6.6 10.4502 6.55 10.4502 6.5 10.4502C5.95 10.4502 5.5 10.9002 5.5 11.4502C5.5 11.9002 5.8 12.2502 6.15 12.4002C6.05 12.6002 6 12.8002 6 13.0002C6 13.5502 6.45 14.0002 7 14.0002C7 14.5502 7.45 15.0002 8 15.0002C8.2 15.0002 8.4 14.9502 8.55 14.8502C8.7 15.2502 9.05 15.5002 9.5 15.5002C10.05 15.5002 10.5 15.0502 10.5 14.5002C10.5 13.9502 10.05 13.5002 9.5 13.5002Z" fill="#E64A19"/>
<path d="M18.5 11.5C18.5 10.95 18.05 10.5 17.5 10.5C17.45 10.5 17.4 10.5 17.35 10.5C17.2 10.2 16.85 10 16.5 10C15.95 10 15.5 10.45 15.5 11C15.5 11.1 15.5 11.15 15.55 11.25C15.55 11.35 15.5 11.4 15.5 11.5C14.95 11.5 14.5 11.95 14.5 12.5C14.5 12.95 14.8 13.3 15.15 13.45C15.1 13.5 15.05 13.6 15.05 13.7C14.9 13.55 14.7 13.5 14.5 13.5C13.95 13.5 13.5 13.95 13.5 14.5C13.5 15.05 13.95 15.5 14.5 15.5C14.95 15.5 15.3 15.2 15.45 14.85C15.6 14.95 15.8 15 16 15C16.55 15 17 14.55 17 14C17.55 14 18 13.55 18 13C18 12.8 17.95 12.6 17.85 12.45C18.2 12.3 18.5 11.95 18.5 11.5Z" fill="#E64A19"/>
<path d="M12 18.5L9.5 16.5V12.5H14.5V16.5L12 18.5Z" fill="#FF9800"/>
<path d="M14.5 15.5C14.5 15.5 13.75 17 12 17V22H20C20 16.5 14.5 15.5 14.5 15.5Z" fill="#F44336"/>
<path d="M12 17C10.25 17 9.5 15.5 9.5 15.5C9.5 15.5 4 16.5 4 22H12V17Z" fill="#03A9F4"/>
<path d="M16.5 11.5C17.0523 11.5 17.5 11.0523 17.5 10.5C17.5 9.94772 17.0523 9.5 16.5 9.5C15.9477 9.5 15.5 9.94772 15.5 10.5C15.5 11.0523 15.9477 11.5 16.5 11.5Z" fill="#FFA726"/>
<path d="M7.5 11.5C8.05228 11.5 8.5 11.0523 8.5 10.5C8.5 9.94772 8.05228 9.5 7.5 9.5C6.94772 9.5 6.5 9.94772 6.5 10.5C6.5 11.0523 6.94772 11.5 7.5 11.5Z" fill="#FFA726"/>
<path d="M16.5 7.50042C16.5 3.70042 7.5 5.00042 7.5 7.50042C7.5 8.05042 7.5 10.4504 7.5 11.0004C7.5 13.5004 9.5 15.5004 12 15.5004C14.5 15.5004 16.5 13.5004 16.5 11.0004C16.5 10.4504 16.5 8.05042 16.5 7.50042Z" fill="#FFB74D"/>
<path d="M14 11C14.2761 11 14.5 10.7761 14.5 10.5C14.5 10.2239 14.2761 10 14 10C13.7239 10 13.5 10.2239 13.5 10.5C13.5 10.7761 13.7239 11 14 11Z" fill="#784719"/>
<path d="M10 11C10.2761 11 10.5 10.7761 10.5 10.5C10.5 10.2239 10.2761 10 10 10C9.72386 10 9.5 10.2239 9.5 10.5C9.5 10.7761 9.72386 11 10 11Z" fill="#784719"/>
<path d="M14 12.25C13.15 12.25 12.75 13 12 13C11.25 13 10.75 12.25 10 12.25C9.6 12.25 9.25 12.6 9.25 13C9.25 13.55 10.6 15 12 15C13.4 15 14.75 13.55 14.75 13C14.75 12.6 14.4 12.25 14 12.25Z" fill="white"/>
<path d="M18.85 7C18.95 6.85 19 6.7 19 6.5C19 5.95 18.55 5.5 18 5.5C18 5.1 17.75 4.75 17.4 4.6C17.25 4.25 16.9 4 16.5 4C16.5 3.45 16.05 3 15.5 3C15.45 3 15.4 3 15.35 3C15.2 2.7 14.85 2.5 14.5 2.5C14.3 2.5 14.1 2.55 13.95 2.65C13.8 2.3 13.45 2 13 2C12.7 2 12.45 2.15 12.25 2.35C12.05 2.15 11.8 2 11.5 2C11.3 2 11.15 2.05 11 2.15C10.85 2.05 10.7 2 10.5 2C10.15 2 9.8 2.2 9.65 2.5C9.6 2.5 9.55 2.5 9.5 2.5C9.05 2.5 8.7 2.8 8.55 3.15C8.4 3.05 8.2 3 8 3C7.45 3 7 3.45 7 4C7 4.2 7.05 4.35 7.15 4.5C7.1 4.5 7.05 4.5 7 4.5C6.45 4.5 6 4.95 6 5.5C6 5.7 6.05 5.85 6.15 6C6.1 6 6.05 6 6 6C5.45 6 5 6.45 5 7C5 7.3 5.15 7.55 5.35 7.75C5.15 7.95 5 8.2 5 8.5C5 8.8 5.15 9.05 5.35 9.25C5.15 9.45 5 9.7 5 10C5 10.55 5.45 11 6 11C6.55 11 7 10.55 7 10C7 9.95 7 9.9 7 9.85C7.15 9.95 7.35 10 7.5 10C8.05 10 8.5 9.55 8.5 9C8.5 8.8 8.45 8.6 8.35 8.45C8.4 8.45 8.45 8.4 8.5 8.35C8.65 8.45 8.8 8.5 9 8.5C9.45 8.5 9.8 8.2 9.95 7.85C10.1 7.95 10.3 8 10.5 8C10.95 8 11.3 7.7 11.45 7.35C11.6 7.45 11.8 7.5 12 7.5C12.45 7.5 12.8 7.2 12.95 6.85C13.1 6.95 13.3 7 13.5 7C13.5 7.55 13.95 8 14.5 8C14.7 8 14.85 7.95 15 7.85C15 7.9 15 7.95 15 8C15 8.35 15.2 8.7 15.5 8.85C15.5 8.9 15.5 8.95 15.5 9C15.5 9.55 15.95 10 16.5 10C16.7 10 16.85 9.95 17 9.85C17 9.9 17 9.95 17 10C17 10.55 17.45 11 18 11C18.55 11 19 10.55 19 10C19 9.7 18.85 9.45 18.65 9.25C18.85 9.05 19 8.8 19 8.5C19 8.3 18.95 8.15 18.85 8C18.95 7.85 19 7.7 19 7.5C19 7.3 18.95 7.15 18.85 7Z" fill="#FF5722"/>
<path d="M12 12.5C12.5523 12.5 13 12.0523 13 11.5C13 10.9477 12.5523 10.5 12 10.5C11.4477 10.5 11 10.9477 11 11.5C11 12.0523 11.4477 12.5 12 12.5Z" fill="#F44336"/>
<path d="M13.65 13.1004C13.55 13.0004 13.4 13.0004 13.3 13.1004C13.3 13.1004 12.7 13.7504 12 13.7504C11.3 13.7504 10.7 13.1004 10.7 13.1004C10.6 13.0004 10.45 13.0004 10.35 13.1004C10.25 13.2004 10.25 13.3504 10.35 13.4504C10.4 13.5004 11.1 14.2504 12.05 14.2504C13 14.2504 13.7 13.5004 13.75 13.4504C13.8 13.3504 13.75 13.2004 13.65 13.1004Z" fill="#F44336"/>
</svg>
