<svg width="52" height="52" viewBox="0 0 52 52" fill="none" xmlns="http://www.w3.org/2000/svg">
<path d="M26 52C40.3594 52 52 40.3594 52 26C52 11.6406 40.3594 0 26 0C11.6406 0 0 11.6406 0 26C0 40.3594 11.6406 52 26 52Z" fill="#4A76A8"/>
<path d="M37.8727 31.6435C37.8437 31.5795 37.8166 31.5264 37.7914 31.4838C37.375 30.7171 36.5793 29.7759 35.4047 28.6601L35.3799 28.6346L35.3675 28.6221L35.3549 28.6092H35.3423C34.8092 28.0896 34.4716 27.7403 34.3303 27.5614C34.0716 27.2207 34.0137 26.8759 34.155 26.5264C34.2549 26.2624 34.6301 25.7048 35.2797 24.853C35.6213 24.4015 35.892 24.0397 36.0918 23.7671C37.5331 21.808 38.1579 20.5561 37.9662 20.011L37.8918 19.8836C37.8418 19.8069 37.7127 19.7367 37.5046 19.6727C37.2961 19.6089 37.0296 19.5983 36.7047 19.6409L33.106 19.6663C33.0477 19.6452 32.9644 19.6471 32.856 19.6727C32.7477 19.6983 32.6935 19.7112 32.6935 19.7112L32.6308 19.7432L32.5811 19.7816C32.5395 19.807 32.4936 19.8517 32.4436 19.9156C32.3938 19.9793 32.3522 20.054 32.319 20.1392C31.9272 21.1698 31.4817 22.128 30.9817 23.0137C30.6735 23.5419 30.3904 23.9996 30.1319 24.3872C29.8737 24.7746 29.6571 25.06 29.4823 25.243C29.3072 25.4262 29.1492 25.5729 29.0073 25.6837C28.8657 25.7946 28.7575 25.8415 28.6826 25.8243C28.6076 25.8072 28.5369 25.7902 28.47 25.7732C28.3534 25.6965 28.2597 25.5922 28.189 25.4602C28.118 25.3282 28.0702 25.162 28.0452 24.9619C28.0203 24.7616 28.0056 24.5893 28.0014 24.4444C27.9975 24.2998 27.9993 24.0951 28.0078 23.8311C28.0164 23.567 28.0203 23.3882 28.0203 23.2945C28.0203 22.9708 28.0265 22.6195 28.0389 22.2405C28.0515 21.8615 28.0617 21.5612 28.0702 21.3399C28.0787 21.1185 28.0827 20.8842 28.0827 20.6372C28.0827 20.3902 28.068 20.1965 28.0389 20.0559C28.0102 19.9154 27.9661 19.7791 27.908 19.647C27.8496 19.515 27.7641 19.4129 27.6519 19.3404C27.5394 19.268 27.3996 19.2105 27.2333 19.1678C26.7917 19.0657 26.2294 19.0104 25.5462 19.0018C23.9968 18.9848 23.0012 19.0871 22.5597 19.3086C22.3848 19.4021 22.2265 19.53 22.0849 19.6917C21.9349 19.8791 21.914 19.9814 22.0223 19.9983C22.5222 20.0748 22.8761 20.258 23.0844 20.5475L23.1595 20.701C23.2178 20.8117 23.2761 21.0077 23.3345 21.2887C23.3927 21.5697 23.4303 21.8806 23.4469 22.2211C23.4885 22.843 23.4885 23.3753 23.4469 23.8181C23.4052 24.2611 23.3658 24.606 23.3282 24.853C23.2906 25.1 23.2344 25.3002 23.1595 25.4535C23.0844 25.6068 23.0345 25.7005 23.0094 25.7345C22.9844 25.7685 22.9636 25.7899 22.9471 25.7983C22.8388 25.8407 22.7262 25.8624 22.6096 25.8624C22.4929 25.8624 22.3513 25.8027 22.1848 25.6834C22.0182 25.5641 21.8454 25.4002 21.6663 25.1915C21.4871 24.9827 21.2851 24.691 21.0601 24.3163C20.8353 23.9416 20.602 23.4987 20.3604 22.9877L20.1605 22.6171C20.0355 22.3787 19.8649 22.0315 19.6483 21.5759C19.4315 21.1202 19.24 20.6793 19.0734 20.2535C19.0068 20.0746 18.9068 19.9384 18.7736 19.8447L18.711 19.8063C18.6695 19.7723 18.6027 19.7362 18.5111 19.6977C18.4195 19.6593 18.3238 19.6317 18.2237 19.6147L14.7999 19.6401C14.45 19.6401 14.2126 19.7212 14.0876 19.883L14.0376 19.9596C14.0126 20.0022 14 20.0704 14 20.1641C14 20.2578 14.025 20.3728 14.075 20.509C14.5748 21.71 15.1184 22.8683 15.7056 23.9841C16.2929 25.0998 16.8032 25.9986 17.2363 26.6795C17.6695 27.361 18.111 28.0042 18.5609 28.6087C19.0107 29.2135 19.3085 29.6011 19.4542 29.7713C19.6001 29.9419 19.7147 30.0694 19.798 30.1546L20.1104 30.4612C20.3104 30.6656 20.6039 30.9105 20.9913 31.1957C21.3788 31.4812 21.8078 31.7622 22.2784 32.0392C22.7492 32.3158 23.2968 32.5415 23.9217 32.7161C24.5465 32.8908 25.1546 32.961 25.7461 32.9271H27.1831C27.4746 32.9014 27.6954 32.8077 27.8455 32.646L27.8952 32.5819C27.9286 32.5311 27.9599 32.4521 27.9888 32.3459C28.018 32.2394 28.0326 32.1221 28.0326 31.9945C28.024 31.6284 28.0513 31.2984 28.1136 31.0045C28.1759 30.7108 28.2469 30.4894 28.3263 30.3402C28.4056 30.1912 28.4952 30.0655 28.5948 29.9635C28.6947 29.8614 28.7659 29.7995 28.8076 29.7782C28.8491 29.7567 28.8822 29.7422 28.9072 29.7335C29.1072 29.6654 29.3425 29.7313 29.6135 29.9317C29.8842 30.1318 30.1382 30.379 30.3758 30.6727C30.6132 30.9667 30.8985 31.2965 31.2317 31.6627C31.565 32.029 31.8565 32.3013 32.1063 32.4804L32.3562 32.6337C32.523 32.736 32.7396 32.8297 33.0062 32.9149C33.2724 33 33.5056 33.0213 33.7058 32.9787L36.9046 32.9277C37.221 32.9277 37.4672 32.8742 37.6418 32.7679C37.8168 32.6614 37.9207 32.5441 37.9543 32.4166C37.9877 32.2888 37.9895 32.144 37.9606 31.982C37.931 31.8204 37.9018 31.7074 37.8727 31.6435Z" fill="white"/>
</svg>
