<?xml version="1.0" standalone="no"?>
<!DOCTYPE svg PUBLIC "-//W3C//DTD SVG 20010904//EN"
 "http://www.w3.org/TR/2001/REC-SVG-20010904/DTD/svg10.dtd">
<svg version="1.0" xmlns="http://www.w3.org/2000/svg"
 width="260.000000pt" height="260.000000pt" viewBox="0 0 260.000000 260.000000"
 preserveAspectRatio="xMidYMid meet">
<metadata>
Created by potrace 1.14, written by Peter Selinger 2001-2017
</metadata>
<g transform="translate(0.000000,260.000000) scale(0.100000,-0.100000)"
fill="#000000" stroke="none">
<path d="M1220 2285 c0 -129 1 -238 3 -242 1 -5 -18 -10 -43 -13 -45 -5 -45
-5 -43 -42 l1 -38 -43 0 -43 0 3 -37 c2 -37 2 -38 -39 -43 -40 -5 -41 -6 -40
-42 0 -42 5 -41 -118 -40 l-48 1 0 -40 c0 -40 -2 -42 -52 -41 -26 1 -28 -2
-28 -41 l0 -42 -82 1 -83 0 0 -40 0 -40 -78 -1 c-50 -1 -81 -6 -90 -15 -8 -8
-8 -11 0 -6 8 4 11 -4 10 -26 -2 -33 -2 -33 -57 -34 -114 -3 -108 -2 -105 -29
1 -14 -2 -25 -6 -25 -5 0 -8 -6 -6 -12 1 -9 -11 -13 -33 -14 -36 0 -36 0 -39
-61 -1 -20 -7 -23 -41 -23 l-40 0 0 -43 c0 -43 0 -43 32 -39 38 6 63 -20 48
-48 -13 -24 6 -39 42 -35 16 2 31 -2 35 -8 11 -18 9 -167 -2 -167 -7 0 -7 -3
0 -8 6 -4 10 -18 10 -32 0 -22 6 -26 40 -30 34 -4 39 -8 40 -32 1 -17 -2 -25
-9 -21 -6 4 -5 -1 3 -10 13 -16 8 -22 -13 -18 -5 1 -3 -5 4 -14 18 -22 21 -45
7 -45 -8 0 -8 -3 -2 -8 16 -11 13 -45 -5 -60 -8 -8 -10 -11 -4 -8 7 3 14 -1
18 -9 3 -8 0 -15 -6 -15 -7 0 -6 -5 2 -15 10 -12 10 -15 0 -15 -9 0 -10 -3 -1
-13 8 -10 7 -17 -2 -27 -6 -7 -7 -10 -2 -7 14 7 14 -115 0 -125 -7 -5 -7 -8 0
-8 6 0 10 -62 9 -168 0 -92 2 -173 4 -179 3 -10 201 -13 895 -13 491 -1 901
-1 912 -1 11 1 46 1 78 0 31 0 58 4 58 8 1 4 3 46 4 93 2 47 4 87 5 90 1 3 1
10 0 15 -2 6 -4 81 -4 167 -1 106 1 155 9 150 5 -3 5 1 -2 9 -7 9 -8 20 -3 29
5 8 6 19 2 25 -10 15 -10 117 0 137 5 10 4 19 -2 23 -5 3 -8 16 -6 28 3 12 5
25 5 30 1 4 17 7 36 7 40 0 45 12 42 95 -1 28 1 58 6 68 4 9 4 17 -2 17 -5 0
-8 11 -7 25 0 14 5 25 9 25 5 0 5 4 2 10 -3 6 1 10 10 10 9 0 14 -4 11 -8 -2
-4 4 -8 14 -8 10 0 16 4 14 8 -3 4 2 8 12 8 11 0 15 6 11 20 -3 11 -1 20 3 20
4 0 6 9 3 21 -5 16 -1 20 13 19 57 -6 64 -2 64 40 l0 40 -40 0 c-42 0 -44 3
-40 53 1 27 1 27 -67 29 -37 0 -73 2 -80 2 -21 2 -28 17 -13 26 11 7 11 10 2
10 -10 0 -10 5 -1 21 8 15 8 19 0 15 -6 -4 -11 -3 -11 3 0 5 -12 8 -27 6 -42
-4 -56 4 -41 23 10 12 10 14 1 8 -16 -9 -17 6 -1 22 15 15 -25 31 -64 26 -18
-2 -32 3 -39 14 -8 13 -9 13 -6 2 4 -12 -3 -16 -27 -15 -24 1 -32 5 -34 23 -2
13 2 30 10 39 9 12 10 15 1 9 -7 -4 -13 -3 -13 2 0 4 -35 8 -77 8 l-78 -1 -3
43 -3 43 -37 -3 c-24 -2 -37 1 -38 10 -1 6 -3 15 -4 20 -1 4 -1 17 0 30 1 21
-2 22 -78 22 -65 0 -81 3 -86 17 -4 9 -1 20 6 25 10 6 10 8 1 8 -7 0 -10 7 -7
15 5 12 -3 15 -38 15 l-45 0 1 38 c1 37 1 37 -41 40 -42 3 -42 3 -40 40 2 37
2 37 -39 40 l-42 3 2 122 1 122 40 0 c40 1 40 1 37 38 -1 20 1 38 5 38 4 1 42
2 83 3 l75 1 -2 35 c0 19 -1 38 -2 43 -1 4 -25 7 -53 6 -107 -3 -106 -3 -104
39 l1 37 -122 3 -123 2 0 -235z"/>
<path d="M1895 1659 c-3 -4 2 -6 10 -5 21 3 28 13 10 13 -9 0 -18 -4 -20 -8z"/>
<path d="M214 1080 c0 -16 3 -27 6 -25 8 5 6 42 -1 50 -3 2 -5 -8 -5 -25z"/>
<path d="M196 993 c-6 -14 -5 -15 5 -6 7 7 10 15 7 18 -3 3 -9 -2 -12 -12z"/>
<path d="M284 838 l-19 -23 23 19 c21 18 27 26 19 26 -2 0 -12 -10 -23 -22z"/>
<path d="M265 720 c-3 -6 1 -7 9 -4 18 7 21 14 7 14 -6 0 -13 -4 -16 -10z"/>
</g>
</svg>
