<svg width="40" height="40" viewBox="0 0 40 40" fill="none" xmlns="http://www.w3.org/2000/svg">
<path d="M27.1667 18.1666L36.6667 3.16663L23.3333 12L26.5 6.16663C26.5 6.16663 10.8333 14.6666 6.33333 19.3333C2.33333 23.3333 2.33333 29.6666 6.33333 33.6666C10.3333 37.6666 16.6667 37.6666 20.6667 33.6666C25.3333 29 32.3333 16.3333 32.3333 16.3333L27.1667 18.1666Z" fill="#FF5722"/>
<path d="M22.25 21.8334L27.5 12.5834L18 18.5L19.5 13.8334C19.5 13.8334 12 18.5834 8.66667 21.8334C7.41667 23.0834 6.66667 24.75 6.66667 26.6667C6.66667 30.4167 9.58333 33.3334 13.3333 33.3334C15.25 33.3334 16.9167 32.5 18.1667 31.3334C20.6667 28.8334 27.25 20.4167 27.25 20.4167L22.25 21.8334Z" fill="#FF9800"/>
<path d="M13.3333 22.5C11 22.5 9.16667 24.3333 9.16667 26.6667C9.16667 29 11 30.8333 13.3333 30.8333C15.6667 30.8333 17.5 29 17.5 26.6667C17.5 24.3333 15.6667 22.5 13.3333 22.5Z" fill="#FFC107"/>
<path d="M13.3333 24.5834C12.1667 24.5834 11.25 25.5 11.25 26.6667C11.25 27.8334 12.1667 28.75 13.3333 28.75C14.5 28.75 15.4167 27.8334 15.4167 26.6667C15.4167 25.5 14.5 24.5834 13.3333 24.5834Z" fill="#FFF9C4"/>
</svg>
