<svg width="52" height="52" viewBox="0 0 52 52" fill="none" xmlns="http://www.w3.org/2000/svg">
<path d="M26 52C40.3594 52 52 40.3594 52 26C52 11.6406 40.3594 0 26 0C11.6406 0 0 11.6406 0 26C0 40.3594 11.6406 52 26 52Z" fill="#3B5998"/>
<path d="M31.5481 15.0046L28.6699 15C25.4362 15 23.3465 17.1251 23.3465 20.4142V22.9106H20.4526C20.2025 22.9106 20 23.1115 20 23.3594V26.9763C20 27.2241 20.2027 27.4249 20.4526 27.4249H23.3465V36.5514C23.3465 36.7993 23.549 37 23.7991 37H27.5749C27.825 37 28.0275 36.799 28.0275 36.5514V27.4249H31.4112C31.6613 27.4249 31.8638 27.2241 31.8638 26.9763L31.8652 23.3594C31.8652 23.2404 31.8174 23.1264 31.7326 23.0422C31.6479 22.9579 31.5324 22.9106 31.4123 22.9106H28.0275V20.7944C28.0275 19.7773 28.272 19.2609 29.6087 19.2609L31.5477 19.2602C31.7975 19.2602 32 19.0593 32 18.8117V15.4532C32 15.2058 31.7977 15.005 31.5481 15.0046Z" fill="white"/>
</svg>
