<svg width="52" height="52" viewBox="0 0 52 52" fill="none" xmlns="http://www.w3.org/2000/svg">
<path d="M26 52C40.3594 52 52 40.3594 52 26C52 11.6406 40.3594 0 26 0C11.6406 0 0 11.6406 0 26C0 40.3594 11.6406 52 26 52Z" fill="#EF40BB"/>
<path d="M30.875 13H21.125C16.6384 13 13 16.6384 13 21.125V30.875C13 35.3616 16.6384 39 21.125 39H30.875C35.3616 39 39 35.3616 39 30.875V21.125C39 16.6384 35.3616 13 30.875 13ZM36.5625 30.875C36.5625 34.0112 34.0112 36.5625 30.875 36.5625H21.125C17.9888 36.5625 15.4375 34.0112 15.4375 30.875V21.125C15.4375 17.9888 17.9888 15.4375 21.125 15.4375H30.875C34.0112 15.4375 36.5625 17.9888 36.5625 21.125V30.875Z" fill="white"/>
<path d="M26 19.5C22.4104 19.5 19.5 22.4104 19.5 26C19.5 29.5896 22.4104 32.5 26 32.5C29.5896 32.5 32.5 29.5896 32.5 26C32.5 22.4104 29.5896 19.5 26 19.5ZM26 30.0625C23.7607 30.0625 21.9375 28.2393 21.9375 26C21.9375 23.7591 23.7607 21.9375 26 21.9375C28.2393 21.9375 30.0625 23.7591 30.0625 26C30.0625 28.2393 28.2393 30.0625 26 30.0625Z" fill="white"/>
<path d="M32.9875 19.8787C33.4658 19.8787 33.8536 19.4909 33.8536 19.0126C33.8536 18.5342 33.4658 18.1465 32.9875 18.1465C32.5091 18.1465 32.1214 18.5342 32.1214 19.0126C32.1214 19.4909 32.5091 19.8787 32.9875 19.8787Z" fill="white"/>
</svg>
