<svg width="52" height="52" viewBox="0 0 52 52" fill="none" xmlns="http://www.w3.org/2000/svg">
<path d="M26 52C40.3594 52 52 40.3594 52 26C52 11.6406 40.3594 0 26 0C11.6406 0 0 11.6406 0 26C0 40.3594 11.6406 52 26 52Z" fill="#E47D08"/>
<path d="M24.2383 31.6269C22.1883 31.4131 20.3399 30.9082 18.7573 29.6705C18.561 29.5165 18.3582 29.368 18.179 29.196C17.4864 28.5308 17.4166 27.7689 17.9647 26.9837C18.4336 26.3118 19.2207 26.132 20.0388 26.5178C20.1972 26.5926 20.3482 26.686 20.4928 26.7862C23.4421 28.8127 27.4937 28.8687 30.4541 26.8773C30.7474 26.6524 31.0609 26.4691 31.4243 26.3755C32.1308 26.1941 32.7897 26.4536 33.1689 27.0718C33.602 27.7777 33.5965 28.4668 33.0628 29.0149C32.2441 29.8552 31.2595 30.4631 30.1655 30.8874C29.1311 31.2885 27.9981 31.4904 26.8767 31.6244C27.0459 31.8086 27.1256 31.8992 27.2314 32.0055C28.7542 33.5354 30.2835 35.059 31.8013 36.5936C32.3183 37.1165 32.4264 37.7649 32.1416 38.3731C31.8303 39.0378 31.1335 39.4751 30.4503 39.4283C30.0174 39.3984 29.6798 39.1829 29.3798 38.8807C28.2307 37.7244 27.06 36.5894 25.9342 35.4113C25.6065 35.0687 25.4489 35.1335 25.1598 35.4309C24.0038 36.621 22.8289 37.7928 21.6471 38.958C21.1165 39.4812 20.485 39.5753 19.8696 39.2765C19.2154 38.9594 18.7992 38.2916 18.8313 37.6206C18.8534 37.1666 19.0767 36.8199 19.3882 36.5089C20.8952 35.0041 22.398 33.4955 23.9013 31.9883C24.0007 31.8881 24.0935 31.7817 24.2383 31.6269Z" fill="white"/>
<path d="M25.4871 26.3852C21.8299 26.3727 18.831 23.3408 18.8523 19.6778C18.8734 15.9743 21.8742 12.9898 25.5675 13C29.2682 13.01 32.2386 16.0374 32.22 19.7794C32.2012 23.435 29.1815 26.3979 25.4871 26.3852ZM28.8109 19.6866C28.8046 17.8679 27.3561 16.4199 25.5409 16.4183C23.7104 16.4163 22.2489 17.8906 22.2631 19.726C22.2766 21.5378 23.7376 22.9755 25.5578 22.9689C27.3724 22.9625 28.817 21.5052 28.8109 19.6866Z" fill="white"/>
</svg>
