<svg width="20" height="24" viewBox="0 0 20 24" fill="none" xmlns="http://www.w3.org/2000/svg">
<path d="M1.45638 6.62474C1.37182 5.42665 1.63756 4.24648 2.34117 3.29726C2.95117 2.43674 3.74538 1.96678 4.70266 1.69214C5.50895 1.45292 6.03742 1.74603 6.26995 2.64246C6.60214 3.98266 7.07625 5.32292 7.24838 6.73403C7.30274 7.35527 6.90111 8.23364 6.46626 8.68602C5.37611 9.7593 5.6026 10.5403 6.43003 12.1647C6.68672 12.6885 7.09439 13.5938 7.88861 14.7923C8.71607 15.9996 9.15387 16.6476 10.2169 16.0979C11.3977 15.5039 12.2583 15.8859 13.1492 16.8448C13.7531 17.5373 14.4175 18.1322 15.0215 18.8247C15.8942 19.8546 15.8549 20.5645 15.1725 21.2919C13.9434 22.6313 11.9141 23.074 10.4042 22.177C9.57067 21.6885 8.74017 21.0491 8.07887 20.3034C5.16474 16.9829 3.06294 13.1216 1.79762 8.76363C1.59529 8.02696 1.50168 7.28146 1.45638 6.62474Z" stroke="#A3BCE4" stroke-width="2" stroke-miterlimit="10"/>
</svg>
