<svg width="139" height="66" viewBox="0 0 139 66" fill="none" xmlns="http://www.w3.org/2000/svg">
<g clip-path="url(#clip0)">
<path d="M41.4444 24.9636C45.402 28.1667 51.2293 31.7212 58.9262 35.6273C58.9943 36.1406 58.8651 36.6606 58.5648 37.0823C58.2645 37.5041 57.8153 37.7963 57.3081 37.9C56.1656 38.2182 55.305 37.9424 54.7262 37.0727C53.5475 42.8848 51.9384 51.1394 49.899 61.8364L46.6308 62.1545C46.852 60.9212 47.155 59.103 47.5399 56.7C47.9399 54.2182 48.2596 52.2985 48.499 50.9409C48.9353 48.3742 49.1323 46.9197 49.0899 46.5773C49.0899 46.4909 49.1217 46.4591 49.1808 46.4818C49.2399 46.5045 49.2717 46.4818 49.2717 46.3864C49.3111 46.1742 49.6414 44.1788 50.2626 40.4C50.499 39 50.3626 38.0364 49.8399 37.5045C49.7688 37.7782 49.63 38.0295 49.4361 38.2353C49.2423 38.441 48.9997 38.5946 48.7308 38.6818C48.1234 38.9136 47.4518 38.9136 46.8444 38.6818C46.5808 39.9545 46.3005 41.8 46.0035 44.2182C45.7065 46.6364 45.4262 48.4409 45.1626 49.6318C45.0626 51.0106 44.5126 55.2652 43.5126 62.3955C43.152 62.3955 41.9035 62.4591 39.7671 62.5864C37.449 59.1924 34.9793 53.8758 32.3581 46.6364C32.4005 46.9091 32.0308 45.3697 31.249 42.0182C30.7126 39.7455 30.3808 38.4455 30.2626 38.1682C30.199 39.1455 30.5126 41.35 31.1717 44.7545C32.3343 50.9124 34.1427 56.9305 36.5671 62.7091C31.8126 62.8121 27.0656 62.8121 22.3262 62.7091C24.3877 57.7896 26.0195 52.7009 27.2035 47.5C27.2516 47.1494 27.3741 46.8131 27.5626 46.5136C27.6444 45.7909 27.8717 44.4 28.2535 42.3409C28.5387 40.9673 28.718 39.5738 28.7899 38.1727C28.6126 38.2773 28.4126 38.8636 28.1899 39.9227C28.1535 40.0727 28.0717 40.4091 27.9535 40.9409C27.8717 41.3636 27.8035 41.7045 27.7444 41.9591C26.0486 49.2533 23.1713 56.221 19.2262 62.5864L15.4171 62.3955C15.099 60.1864 14.5596 56.2076 13.799 50.4591C13.1232 45.45 12.5838 41.5106 12.1808 38.6409C10.3808 38.8318 9.33078 38.4182 9.03078 37.4C8.6126 38.2682 8.4126 38.6409 8.43078 38.5136C8.4126 38.5985 8.5323 39.4894 8.78987 41.1864C8.83078 41.5045 8.93987 42.1727 9.12169 43.1909C9.28078 44.0409 9.40351 44.7409 9.48078 45.2909C9.5626 46.0136 9.70351 46.4273 9.90351 46.5364C9.78281 47.1389 9.80303 47.7611 9.9626 48.3545C10.8717 53.7 11.6505 58.3045 12.299 62.1682C11.3399 62.0818 10.2535 61.9773 9.03078 61.85C6.77321 50.0773 5.16412 41.7924 4.20351 36.9955C3.68533 37.9045 2.83987 38.2273 1.65351 37.9045C0.467147 37.5818 -0.0737622 36.8318 0.00805594 35.6318C7.92321 31.5955 13.6899 28.0818 17.3081 25.0909C23.6262 19.8909 27.4747 14.3455 28.8535 8.45455C28.8535 8.32727 28.8535 8.29545 28.9126 8.35909C28.9717 8.42273 28.9717 8.45455 28.9717 8.39091C29.0384 8.16146 29.0885 7.92753 29.1217 7.69091C29.1626 7.41818 29.2535 7.3 29.3899 7.34091C29.2817 6.45328 29.2817 5.55581 29.3899 4.66818C29.4329 4.66786 29.4752 4.67883 29.5126 4.7C29.5382 4.71784 29.5679 4.72879 29.599 4.73182C29.599 4.85909 29.6399 5.68636 29.7808 7.21364C29.8217 7.34091 29.7808 7.42727 29.7217 7.46818L29.5444 7.54545C29.5913 7.63825 29.6639 7.71557 29.7535 7.76818C29.8544 7.81621 29.9466 7.88073 30.0262 7.95909C30.1853 9.3 30.7762 11.0682 31.7944 13.2773L34.6444 19.4182L41.4444 24.9636ZM8.9126 35.6909C14.449 31.2333 18.3762 27.6682 20.6944 24.9955C24.4717 20.7642 27.204 15.7061 28.6717 10.2273C28.6613 10.2055 28.6442 10.1876 28.623 10.1761C28.6018 10.1647 28.5774 10.1603 28.5535 10.1636C26.8535 15.8061 23.5853 20.8561 18.749 25.3136C16.6278 27.2652 11.899 30.75 4.5626 35.7682C4.80503 36.85 5.21563 37.5288 5.79442 37.8045C6.12862 37.9732 6.50155 38.0503 6.87523 38.0279C7.2489 38.0056 7.60998 37.8846 7.92169 37.6773C8.25555 37.4714 8.52524 37.1763 8.70033 36.8254C8.87542 36.4744 8.94894 36.0815 8.9126 35.6909ZM27.6217 32.5682C28.7399 19.6682 29.3096 11.5303 29.3308 8.15455C29.3308 8.09091 29.2899 8.07273 29.2126 8.09091V8.28182C28.3192 13.8604 26.2541 19.1863 23.1535 23.9091C20.7227 27.6511 17.9206 31.1385 14.7899 34.3182C14.0081 35.1 13.6081 35.6 13.5899 35.8136C13.5675 36.0603 13.6009 36.3089 13.6874 36.5409C13.7739 36.773 13.9115 36.9827 14.0899 37.1545C14.3975 37.5794 14.8476 37.8794 15.3581 38C15.7183 38.0975 16.0982 38.0958 16.4575 37.995C16.8168 37.8942 17.1421 37.698 17.399 37.4273C17.8527 36.9186 18.1076 36.2634 18.1171 35.5818C20.5274 32.1076 22.6554 28.4459 24.4808 24.6318C25.9149 21.5994 27.0786 18.4462 27.9581 15.2091C28.6399 12.6 28.9308 11.4015 28.8308 11.6136C27.9929 18.6627 26.33 25.5889 23.8762 32.25C23.6353 32.9091 23.4535 33.2591 23.3353 33.3C23.3723 33.7912 23.2564 34.2818 23.0035 34.7045C22.7673 35.1768 22.6711 35.7067 22.7262 36.2318C22.7868 36.5407 22.9152 36.8323 23.1023 37.0855C23.2894 37.3386 23.5305 37.547 23.8081 37.6955C24.1195 37.9014 24.4786 38.0242 24.851 38.052C25.2234 38.0799 25.5967 38.0119 25.9353 37.8545C26.6535 37.5364 27.1262 36.3773 27.3444 34.3864C27.3444 34.1955 27.4171 33.8773 27.4944 33.4273C27.5519 33.1433 27.5944 32.8566 27.6217 32.5682ZM21.1171 55.55L21.0535 54.6409C20.5778 48.0924 20.299 43.8227 20.2171 41.8318C20.092 41.2326 20.0114 40.6248 19.9762 40.0136C19.9641 39.4564 19.894 38.9019 19.7671 38.3591C19.3966 38.2515 19.0555 38.0609 18.7696 37.8017C18.4837 37.5426 18.2606 37.2218 18.1171 36.8636C17.8762 37.7727 17.2081 38.2955 16.0762 38.4864C16.1187 39.0712 16.2293 40.2727 16.4081 42.0909C16.8262 46.297 17.0868 48.897 17.1899 49.8909C17.7959 55.4273 18.1247 58.6849 18.1762 59.6636C18.7665 59.1056 19.2814 58.473 19.7081 57.7818L21.0717 55.8091L21.1171 55.55ZM27.0262 42.85C27.6736 40.8776 27.7773 38.7672 27.3262 36.7409C27.2945 36.7351 27.2638 36.7244 27.2353 36.7091C27.2241 36.6978 27.2106 36.6891 27.1957 36.6836C27.1807 36.6781 27.1648 36.676 27.149 36.6773C27.1195 37.0275 26.9781 37.359 26.7456 37.6226C26.5131 37.8862 26.2019 38.0679 25.8581 38.1409C25.1759 38.3544 24.4464 38.3654 23.7581 38.1727C23.7581 39.6121 23.8278 41.553 23.9671 43.9955C24.0914 46.7561 24.1717 48.6985 24.2081 49.8227C24.3081 49.8 24.4899 49.4818 24.749 48.8682C24.7899 48.7591 24.8671 48.5818 24.9899 48.3273C25.086 48.1662 25.1652 47.9956 25.2262 47.8182C25.3738 47.4344 25.4953 47.0411 25.5899 46.6409C25.6848 46.2367 25.8141 45.8413 25.9762 45.4591C26.0171 45.3955 26.0853 45.3 26.1853 45.1727C26.2738 45.0914 26.3462 44.9943 26.399 44.8864C26.4308 44.7818 26.6444 44.1045 27.0217 42.85H27.0262ZM32.6581 4.43182H29.3308V3H35.9581C35.5905 3.208 35.1798 3.32781 34.7581 3.35C34.3075 3.39454 33.8694 3.5241 33.4671 3.73182C33.8857 3.87429 34.3186 3.97032 34.7581 4.01818C35.1892 4.0393 35.6055 4.18277 35.9581 4.43182H32.6581ZM44.999 36.9955C45.1518 36.774 45.2433 36.516 45.2641 36.2478C45.2848 35.9795 45.2341 35.7105 45.1171 35.4682C44.803 35.055 44.4515 34.6716 44.0671 34.3227C43.7671 34.0227 43.349 33.5455 42.8081 32.8864C38.9808 28.4167 36.2474 24.7894 34.6081 22.0045C32.0335 17.7089 30.3702 12.9295 29.7217 7.96364C29.7195 7.9504 29.7142 7.93786 29.7064 7.92701C29.6985 7.91615 29.6882 7.90729 29.6762 7.90111C29.6643 7.89494 29.6512 7.89162 29.6377 7.89143C29.6243 7.89123 29.611 7.89417 29.599 7.9C29.7232 14.1636 30.4338 23.65 31.7308 36.3591C31.9902 36.9752 32.4564 37.4815 33.049 37.7909C33.3605 37.948 33.7046 38.0298 34.0535 38.0298C34.4024 38.0298 34.7465 37.948 35.0581 37.7909C35.3943 37.6255 35.68 37.3729 35.8855 37.0596C36.091 36.7462 36.2086 36.3834 36.2262 36.0091C36.2505 35.7545 35.9611 34.7985 35.3581 33.1409C33.577 28.2672 32.164 23.2668 31.1308 18.1818C30.658 15.9887 30.3271 13.7675 30.1399 11.5318C31.5611 18.9773 35.1202 27.0091 40.8172 35.6273C40.8262 36.1411 40.9874 36.6407 41.2802 37.0631C41.5731 37.4854 41.9845 37.8114 42.4626 38C43.705 38.1152 44.5505 37.7803 44.999 36.9955ZM52.1808 38.0455C52.7371 37.9819 53.2527 37.7225 53.6353 37.3136C54.1762 36.7818 54.3762 36.2636 54.2353 35.7545C53.6898 35.2817 53.0973 34.8659 52.4671 34.5136C52.2671 34.4045 52.0126 34.2591 51.7444 34.0591C51.5435 33.8966 51.3341 33.7449 51.1171 33.6045C51.0367 33.5395 50.9662 33.4629 50.9081 33.3773C50.8471 33.3231 50.7963 33.2584 50.7581 33.1864L50.4581 33.0909C50.3608 33.0813 50.2673 33.0485 50.1853 32.9955C50.0081 32.8909 49.5581 32.5955 48.8217 32.0864L47.9126 31.45C47.5126 31.1773 47.2126 30.9727 47.0035 30.8455C46.975 30.8077 46.9548 30.7643 46.9444 30.7182C46.9444 30.6364 46.9035 30.5909 46.8853 30.5909C46.8275 30.568 46.7657 30.5572 46.7035 30.5591C46.6552 30.5416 46.6047 30.5309 46.5535 30.5273L45.9535 29.9864C45.755 29.804 45.5455 29.634 45.3262 29.4773C37.5323 23.6439 32.5899 17.3939 30.499 10.7273C30.499 10.6636 30.4626 10.6318 30.3808 10.6318C31.8682 15.9822 34.5666 20.9186 38.2671 25.0591C40.5278 27.6258 44.3853 31.1273 49.8399 35.5636C49.8686 36.2077 50.1118 36.8237 50.5308 37.3136C50.7315 37.5537 50.9846 37.7445 51.2707 37.8714C51.5567 37.9983 51.8681 38.0578 52.1808 38.0455ZM34.6671 49.8182C34.9914 44.3 35.1611 40.4167 35.1762 38.1682C34.4874 38.3598 33.7567 38.3376 33.0808 38.1045C32.7559 38.0327 32.4569 37.8731 32.2165 37.643C31.976 37.413 31.8033 37.1214 31.7171 36.8C31.2171 37.2227 31.099 38.5727 31.3581 40.8409C31.3581 40.7773 31.5778 41.5833 32.0171 43.2591C32.6447 45.5403 33.5339 47.7413 34.6671 49.8182ZM40.6944 59.7182C40.8762 57.7636 41.2368 54.2788 41.7762 49.2636C42.252 44.8909 42.6111 41.347 42.8535 38.6318C41.6535 38.2091 41.0353 37.6636 40.9353 37.0091C40.9035 37.0033 40.8729 36.9926 40.8444 36.9773C40.8327 36.9654 40.8184 36.9563 40.8027 36.9508C40.7869 36.9453 40.7701 36.9434 40.7535 36.9455C40.7239 37.1447 40.6528 37.3354 40.5448 37.5053C40.4367 37.6753 40.2941 37.8206 40.1262 37.9318C39.9651 38.0418 39.7948 38.1376 39.6171 38.2182L39.0899 38.4909C38.5899 44.2485 38.1596 49.9561 37.799 55.6136C39.4535 58.0561 40.4187 59.4258 40.6944 59.7227V59.7182Z" fill="#A3BCE4"/>
<g clip-path="url(#clip1)">
<path d="M76.0098 30.8047L74.3984 38.1953C74.1621 39.291 73.8792 40.2363 73.5498 41.0312C73.2204 41.8333 72.8372 42.4958 72.4004 43.0186C71.9707 43.5413 71.4801 43.9281 70.9287 44.1787C70.3773 44.4294 69.7614 44.5547 69.0811 44.5547C68.5439 44.5547 68.057 44.4831 67.6201 44.3398C67.1833 44.1966 66.8073 43.9925 66.4922 43.7275C66.1842 43.4626 65.9443 43.1439 65.7725 42.7715C65.6006 42.4062 65.5146 42.0016 65.5146 41.5576C65.5146 41.1279 65.5898 40.7269 65.7402 40.3545C65.8978 39.9893 66.109 39.6706 66.374 39.3984C66.639 39.1191 66.9505 38.9007 67.3086 38.7432C67.6738 38.5856 68.0641 38.5068 68.4795 38.5068C69.0452 38.5068 69.4964 38.6429 69.833 38.915C70.1768 39.1872 70.3486 39.556 70.3486 40.0215C70.3486 40.3652 70.2699 40.6445 70.1123 40.8594C69.9762 40.6803 69.7936 40.5407 69.5645 40.4404C69.3424 40.3402 69.1061 40.29 68.8555 40.29C68.6335 40.29 68.4294 40.3258 68.2432 40.3975C68.0641 40.4762 67.9066 40.5837 67.7705 40.7197C67.6416 40.863 67.5413 41.0312 67.4697 41.2246C67.3981 41.418 67.3623 41.6328 67.3623 41.8691C67.3623 42.0983 67.3981 42.3096 67.4697 42.5029C67.5413 42.7035 67.638 42.8717 67.7598 43.0078C67.8887 43.151 68.0391 43.262 68.2109 43.3408C68.39 43.4196 68.5833 43.459 68.791 43.459C69.2995 43.459 69.7363 43.2298 70.1016 42.7715C70.4668 42.3203 70.7497 41.6471 70.9502 40.752L72.0459 35.8857H71.96C71.5589 36.4372 71.0755 36.8633 70.5098 37.1641C69.9512 37.4577 69.3353 37.6045 68.6621 37.6045C68.0104 37.6045 67.4232 37.4756 66.9004 37.2178C66.3776 36.9528 65.93 36.5804 65.5576 36.1006C65.1924 35.6136 64.9095 35.0264 64.709 34.3389C64.5085 33.6514 64.4082 32.8851 64.4082 32.04C64.4082 31.2236 64.5013 30.443 64.6875 29.6982C64.8737 28.9463 65.1387 28.248 65.4824 27.6035C65.8262 26.959 66.238 26.3753 66.7178 25.8525C67.2048 25.3298 67.7454 24.8822 68.3398 24.5098C68.9414 24.1374 69.5859 23.8509 70.2734 23.6504C70.9609 23.4499 71.6842 23.3496 72.4434 23.3496C73.0664 23.3496 73.6286 23.4212 74.1299 23.5645C74.6312 23.7005 75.0573 23.901 75.4082 24.166C75.7591 24.4238 76.0277 24.7425 76.2139 25.1221C76.4001 25.4945 76.4932 25.9134 76.4932 26.3789C76.4932 26.694 76.4502 26.9805 76.3643 27.2383C76.2855 27.4961 76.1709 27.7181 76.0205 27.9043C75.8773 28.0833 75.7018 28.223 75.4941 28.3232C75.2865 28.4235 75.0609 28.4736 74.8174 28.4736C74.5452 28.4736 74.2874 28.4163 74.0439 28.3018C73.8005 28.18 73.5964 28.0081 73.4316 27.7861C73.5605 27.7002 73.6823 27.5856 73.7969 27.4424C73.9115 27.292 74.0117 27.1273 74.0977 26.9482C74.1836 26.762 74.2516 26.5687 74.3018 26.3682C74.3519 26.1676 74.377 25.9671 74.377 25.7666C74.377 25.3226 74.248 24.9824 73.9902 24.7461C73.7396 24.5026 73.3779 24.3809 72.9053 24.3809C72.4684 24.3809 72.0387 24.4847 71.6162 24.6924C71.1937 24.8929 70.7926 25.1722 70.4131 25.5303C70.0407 25.8883 69.6934 26.318 69.3711 26.8193C69.0488 27.3135 68.7695 27.8542 68.5332 28.4414C68.304 29.0215 68.125 29.641 67.9961 30.2998C67.8672 30.9515 67.8027 31.6175 67.8027 32.2979C67.8027 33.4079 67.9746 34.2529 68.3184 34.833C68.6693 35.4059 69.1777 35.6924 69.8438 35.6924C70.6458 35.6924 71.3441 35.2806 71.9385 34.457C72.54 33.6263 73.0306 32.4017 73.4102 30.7832L76.0098 30.8047ZM78.792 40L81.7783 26.0029L85.0332 25.5732L83.959 30.6543H84.1309C84.5892 30.6543 85.0081 30.5326 85.3877 30.2891C85.7744 30.0456 86.1038 29.7376 86.376 29.3652C86.6553 28.9928 86.8701 28.5811 87.0205 28.1299C87.1781 27.6787 87.2568 27.2419 87.2568 26.8193C87.2568 26.5114 87.2103 26.2178 87.1172 25.9385C87.0241 25.6592 86.8809 25.4157 86.6875 25.208C86.4941 24.9932 86.2435 24.8249 85.9355 24.7031C85.6348 24.5742 85.2695 24.5098 84.8398 24.5098C83.9447 24.5098 83.1318 24.6315 82.4014 24.875C81.6781 25.1185 81.055 25.473 80.5322 25.9385C80.0094 26.3968 79.6048 26.9554 79.3184 27.6143C79.0391 28.2731 78.8994 29.0215 78.8994 29.8594C78.8994 30.1387 78.9137 30.3678 78.9424 30.5469C78.9782 30.7188 79.014 30.8584 79.0498 30.9658C79.0856 31.0661 79.1178 31.1449 79.1465 31.2021C79.1823 31.2594 79.2002 31.3096 79.2002 31.3525C78.8206 31.3525 78.484 31.3167 78.1904 31.2451C77.8968 31.1663 77.6497 31.0446 77.4492 30.8799C77.2559 30.7152 77.1055 30.4967 76.998 30.2246C76.8978 29.9525 76.8477 29.6159 76.8477 29.2148C76.8477 28.7279 76.9515 28.248 77.1592 27.7754C77.374 27.3027 77.6641 26.8551 78.0293 26.4326C78.4017 26.0101 78.835 25.6198 79.3291 25.2617C79.8304 24.9036 80.3639 24.5957 80.9297 24.3379C81.5026 24.0729 82.097 23.8688 82.7129 23.7256C83.3359 23.5752 83.9554 23.5 84.5713 23.5C85.4378 23.5 86.1826 23.6003 86.8057 23.8008C87.4359 23.9941 87.9551 24.2555 88.3633 24.585C88.7715 24.9144 89.0723 25.2904 89.2656 25.7129C89.4661 26.1354 89.5664 26.5723 89.5664 27.0234C89.5664 27.36 89.5127 27.7038 89.4053 28.0547C89.305 28.3984 89.151 28.735 88.9434 29.0645C88.7428 29.3939 88.4958 29.709 88.2021 30.0098C87.9085 30.3034 87.5719 30.5612 87.1924 30.7832C87.4788 30.8691 87.7188 30.9837 87.9121 31.127C88.1126 31.263 88.2702 31.4277 88.3848 31.6211C88.4993 31.8073 88.5817 32.0186 88.6318 32.2549C88.682 32.484 88.707 32.7275 88.707 32.9854C88.707 33.4437 88.6497 33.9271 88.5352 34.4355C88.4277 34.9368 88.306 35.4346 88.1699 35.9287C88.0339 36.4229 87.9085 36.8955 87.7939 37.3467C87.6865 37.7979 87.6328 38.1989 87.6328 38.5498C87.6328 38.8936 87.708 39.1979 87.8584 39.4629C88.016 39.7207 88.2272 39.8997 88.4922 40C88.0195 40.1361 87.6042 40.2327 87.2461 40.29C86.888 40.3473 86.5765 40.376 86.3115 40.376C85.9535 40.376 85.6634 40.3294 85.4414 40.2363C85.2194 40.1504 85.0439 40.0394 84.915 39.9033C84.7933 39.7601 84.7074 39.6025 84.6572 39.4307C84.6143 39.2516 84.5928 39.0762 84.5928 38.9043C84.5928 38.5319 84.6536 38.1022 84.7754 37.6152C84.8971 37.1211 85.0296 36.6126 85.1729 36.0898C85.3232 35.5599 85.4593 35.0371 85.5811 34.5215C85.7028 34.0059 85.7637 33.5368 85.7637 33.1143C85.7637 32.8923 85.7386 32.6917 85.6885 32.5127C85.6455 32.3265 85.5739 32.1689 85.4736 32.04C85.3734 31.904 85.2373 31.8001 85.0654 31.7285C84.8936 31.6569 84.6859 31.6211 84.4424 31.6211C84.3421 31.6211 84.2311 31.6283 84.1094 31.6426C83.9876 31.6497 83.8551 31.6712 83.7119 31.707L81.9502 40H78.792ZM98.5576 40L100.244 32.0186C99.6855 31.7607 99.1735 31.5745 98.708 31.46C98.2497 31.3454 97.7806 31.2666 97.3008 31.2236C96.8854 32.1188 96.5023 33.0391 96.1514 33.9844C95.8076 34.9297 95.5068 35.8499 95.249 36.7451C94.9984 37.6331 94.8014 38.4674 94.6582 39.248C94.515 40.0286 94.4434 40.7054 94.4434 41.2783C94.4434 41.6292 94.472 41.8942 94.5293 42.0732C94.5938 42.2594 94.6654 42.4027 94.7441 42.5029C94.4505 42.5029 94.1318 42.4886 93.7881 42.46C93.4515 42.4313 93.1328 42.3418 92.832 42.1914C92.5384 42.0482 92.2913 41.819 92.0908 41.5039C91.8975 41.1888 91.8008 40.7448 91.8008 40.1719C91.8008 39.6849 91.876 39.1012 92.0264 38.4209C92.1839 37.7406 92.4059 37.0101 92.6924 36.2295C92.9788 35.4417 93.319 34.6217 93.7129 33.7695C94.1068 32.9102 94.5472 32.0615 95.0342 31.2236C94.3395 31.2666 93.7702 31.374 93.3262 31.5459C92.8893 31.7106 92.5993 31.9827 92.4561 32.3623C92.5133 32.3623 92.5742 32.4375 92.6387 32.5879C92.7103 32.7311 92.7461 32.8851 92.7461 33.0498C92.7461 33.3148 92.6243 33.526 92.3809 33.6836C92.1445 33.834 91.8545 33.9092 91.5107 33.9092C91.3174 33.9092 91.1383 33.8841 90.9736 33.834C90.8089 33.7767 90.6657 33.6979 90.5439 33.5977C90.4222 33.4902 90.3255 33.3577 90.2539 33.2002C90.1823 33.0355 90.1465 32.8457 90.1465 32.6309C90.1465 32.2585 90.2575 31.9076 90.4795 31.5781C90.7087 31.2487 91.0238 30.9622 91.4248 30.7188C91.8258 30.4753 92.2985 30.2819 92.8428 30.1387C93.3942 29.9954 93.9922 29.9238 94.6367 29.9238C94.9375 29.9238 95.3206 29.9453 95.7861 29.9883C96.3447 29.1074 96.9355 28.2767 97.5586 27.4961C98.1816 26.7083 98.8226 26.0208 99.4814 25.4336C100.14 24.8392 100.803 24.3701 101.469 24.0264C102.135 23.6755 102.79 23.5 103.435 23.5C103.692 23.5 103.979 23.5215 104.294 23.5645C104.616 23.6074 104.91 23.6898 105.175 23.8115L101.727 40H98.5576ZM101.727 25.0576C101.397 25.2367 101.061 25.4945 100.717 25.8311C100.38 26.1605 100.044 26.5544 99.707 27.0127C99.3776 27.4639 99.0482 27.9688 98.7188 28.5273C98.3893 29.0788 98.0706 29.6624 97.7627 30.2783C98.2067 30.3643 98.6579 30.4717 99.1162 30.6006C99.5745 30.7223 100.019 30.8691 100.448 31.041L101.727 25.0576ZM120.45 23.543L116.862 40H113.822L111.276 29.0859L108.763 40H106.679L109.987 24.9287C108.97 25.2868 108.208 25.8418 107.699 26.5938C107.191 27.3457 106.937 28.2588 106.937 29.333C106.937 29.8057 106.987 30.2389 107.087 30.6328C107.194 31.0195 107.341 31.3346 107.527 31.5781C106.589 31.5781 105.895 31.3883 105.443 31.0088C104.999 30.6221 104.777 30.0169 104.777 29.1934C104.777 28.6706 104.856 28.1657 105.014 27.6787C105.178 27.1917 105.404 26.7334 105.69 26.3037C105.984 25.874 106.335 25.4837 106.743 25.1328C107.151 24.7747 107.603 24.4704 108.097 24.2197C108.591 23.9619 109.121 23.765 109.687 23.6289C110.252 23.4857 110.843 23.4141 111.459 23.4141C111.803 23.4141 112.1 23.4391 112.351 23.4893C112.608 23.5322 112.891 23.6074 113.199 23.7148L115.853 35.4883L118.312 23.543H120.45ZM121.417 40L124.403 26.0029L127.658 25.5732L125.016 37.9053C125.417 38.1989 125.836 38.3457 126.272 38.3457C126.709 38.3457 127.118 38.2096 127.497 37.9375C127.877 37.6654 128.22 37.2965 128.528 36.8311C128.843 36.3584 129.123 35.807 129.366 35.1768C129.61 34.5465 129.814 33.8734 129.979 33.1572C130.15 32.4339 130.279 31.6927 130.365 30.9336C130.451 30.1673 130.494 29.4118 130.494 28.667C130.494 27.9222 130.415 27.2884 130.258 26.7656C130.107 26.2357 129.889 25.806 129.603 25.4766C129.323 25.14 128.987 24.8965 128.593 24.7461C128.199 24.5885 127.762 24.5098 127.282 24.5098C126.466 24.5098 125.707 24.6315 125.005 24.875C124.303 25.1185 123.694 25.473 123.179 25.9385C122.663 26.3968 122.258 26.9554 121.965 27.6143C121.671 28.2731 121.524 29.0215 121.524 29.8594C121.524 30.1387 121.539 30.3678 121.567 30.5469C121.603 30.7188 121.639 30.8584 121.675 30.9658C121.711 31.0661 121.743 31.1449 121.771 31.2021C121.807 31.2594 121.825 31.3096 121.825 31.3525C121.088 31.3525 120.511 31.1986 120.096 30.8906C119.68 30.5827 119.473 30.0563 119.473 29.3115C119.473 28.8102 119.569 28.3197 119.763 27.8398C119.963 27.3529 120.243 26.8945 120.601 26.4648C120.959 26.0352 121.388 25.6413 121.89 25.2832C122.391 24.918 122.942 24.6029 123.544 24.3379C124.153 24.0729 124.804 23.8688 125.499 23.7256C126.194 23.5752 126.913 23.5 127.658 23.5C128.367 23.5 129.005 23.5788 129.57 23.7363C130.136 23.8939 130.637 24.1159 131.074 24.4023C131.511 24.6816 131.883 25.0182 132.191 25.4121C132.507 25.7988 132.761 26.2285 132.954 26.7012C133.155 27.1667 133.301 27.668 133.395 28.2051C133.488 28.735 133.534 29.2793 133.534 29.8379C133.534 30.6758 133.459 31.5173 133.309 32.3623C133.158 33.2074 132.947 34.0166 132.675 34.79C132.41 35.5635 132.088 36.2868 131.708 36.96C131.336 37.626 130.924 38.2061 130.473 38.7002C130.021 39.1943 129.538 39.5846 129.022 39.8711C128.514 40.1504 127.988 40.29 127.443 40.29C127.014 40.29 126.577 40.1969 126.133 40.0107C125.689 39.8245 125.23 39.5273 124.758 39.1191L124.575 40H121.417ZM76.1602 48.4648C76.1602 48.7728 76.1172 49.0557 76.0312 49.3135C75.9525 49.5641 75.8415 49.7826 75.6982 49.9688C75.555 50.1478 75.3796 50.2874 75.1719 50.3877C74.9642 50.488 74.7386 50.5381 74.4951 50.5381C74.2158 50.5381 73.9616 50.4808 73.7324 50.3662C73.5104 50.2445 73.3171 50.0726 73.1523 49.8506C73.4245 49.6501 73.6429 49.3851 73.8076 49.0557C73.9723 48.7191 74.0547 48.361 74.0547 47.9814C74.0547 47.5088 73.915 47.1364 73.6357 46.8643C73.3564 46.585 72.9733 46.4453 72.4863 46.4453C72.1927 46.4453 71.9206 46.5026 71.6699 46.6172C71.4264 46.7246 71.2152 46.8786 71.0361 47.0791C70.8643 47.2725 70.7282 47.5052 70.6279 47.7773C70.5348 48.0495 70.4883 48.3467 70.4883 48.6689C70.4883 49.1559 70.6064 49.6143 70.8428 50.0439C71.0791 50.4736 71.3763 50.8962 71.7344 51.3115C72.0924 51.7269 72.4792 52.1494 72.8945 52.5791C73.3099 53.0016 73.6966 53.4564 74.0547 53.9434C74.4128 54.4232 74.71 54.946 74.9463 55.5117C75.1826 56.0703 75.3008 56.6898 75.3008 57.3701C75.3008 58.0934 75.1504 58.763 74.8496 59.3789C74.5488 59.9876 74.1299 60.5176 73.5928 60.9688C73.0628 61.4128 72.4362 61.7601 71.7129 62.0107C70.9967 62.2686 70.2197 62.3975 69.3818 62.3975C68.68 62.3975 68.0426 62.3044 67.4697 62.1182C66.904 61.9391 66.417 61.6813 66.0088 61.3447C65.6077 61.001 65.2962 60.5928 65.0742 60.1201C64.8522 59.6475 64.7412 59.1211 64.7412 58.541C64.7412 58.054 64.82 57.5993 64.9775 57.1768C65.1351 56.7542 65.3499 56.389 65.6221 56.0811C65.8942 55.766 66.2165 55.5189 66.5889 55.3398C66.9613 55.1608 67.3587 55.0713 67.7812 55.0713C68.2969 55.0713 68.7301 55.2002 69.0811 55.458C69.432 55.7158 69.6504 56.0703 69.7363 56.5215C69.3496 56.5215 69.0023 56.5752 68.6943 56.6826C68.3864 56.79 68.125 56.9404 67.9102 57.1338C67.6953 57.3271 67.527 57.5635 67.4053 57.8428C67.2907 58.1149 67.2334 58.4229 67.2334 58.7666C67.2334 59.4111 67.4196 59.9232 67.792 60.3027C68.1715 60.6751 68.68 60.8613 69.3174 60.8613C69.7041 60.8613 70.0622 60.7933 70.3916 60.6572C70.721 60.514 71.0039 60.3206 71.2402 60.0771C71.4766 59.8337 71.6628 59.5436 71.7988 59.207C71.9349 58.8704 72.0029 58.5052 72.0029 58.1113C72.0029 57.7103 71.9349 57.3271 71.7988 56.9619C71.6699 56.5895 71.4945 56.2314 71.2725 55.8877C71.0505 55.5368 70.7998 55.193 70.5205 54.8564C70.2412 54.5199 69.9548 54.1833 69.6611 53.8467C69.3675 53.5029 69.0811 53.1592 68.8018 52.8154C68.5225 52.4717 68.2718 52.1208 68.0498 51.7627C67.8278 51.3975 67.6488 51.0215 67.5127 50.6348C67.3838 50.248 67.3193 49.8398 67.3193 49.4102C67.3193 48.8301 67.4411 48.2965 67.6846 47.8096C67.9352 47.3154 68.279 46.8893 68.7158 46.5312C69.1598 46.1732 69.6826 45.8939 70.2842 45.6934C70.8857 45.4857 71.541 45.3818 72.25 45.3818C72.8444 45.3818 73.3815 45.457 73.8613 45.6074C74.3411 45.7507 74.7493 45.9583 75.0859 46.2305C75.4297 46.4954 75.6947 46.8177 75.8809 47.1973C76.0671 47.5768 76.1602 47.9993 76.1602 48.4648ZM85.1514 62L86.8379 54.0186C86.2793 53.7607 85.7673 53.5745 85.3018 53.46C84.8434 53.3454 84.3743 53.2666 83.8945 53.2236C83.4792 54.1188 83.096 55.0391 82.7451 55.9844C82.4014 56.9297 82.1006 57.8499 81.8428 58.7451C81.5921 59.6331 81.3952 60.4674 81.252 61.248C81.1087 62.0286 81.0371 62.7054 81.0371 63.2783C81.0371 63.6292 81.0658 63.8942 81.123 64.0732C81.1875 64.2594 81.2591 64.4027 81.3379 64.5029C81.0443 64.5029 80.7256 64.4886 80.3818 64.46C80.0452 64.4313 79.7266 64.3418 79.4258 64.1914C79.1322 64.0482 78.8851 63.819 78.6846 63.5039C78.4912 63.1888 78.3945 62.7448 78.3945 62.1719C78.3945 61.6849 78.4697 61.1012 78.6201 60.4209C78.7777 59.7406 78.9997 59.0101 79.2861 58.2295C79.5726 57.4417 79.9128 56.6217 80.3066 55.7695C80.7005 54.9102 81.141 54.0615 81.6279 53.2236C80.9333 53.2666 80.3639 53.374 79.9199 53.5459C79.4831 53.7106 79.193 53.9827 79.0498 54.3623C79.1071 54.3623 79.168 54.4375 79.2324 54.5879C79.304 54.7311 79.3398 54.8851 79.3398 55.0498C79.3398 55.3148 79.2181 55.526 78.9746 55.6836C78.7383 55.834 78.4482 55.9092 78.1045 55.9092C77.9111 55.9092 77.7321 55.8841 77.5674 55.834C77.4027 55.7767 77.2594 55.6979 77.1377 55.5977C77.016 55.4902 76.9193 55.3577 76.8477 55.2002C76.776 55.0355 76.7402 54.8457 76.7402 54.6309C76.7402 54.2585 76.8512 53.9076 77.0732 53.5781C77.3024 53.2487 77.6175 52.9622 78.0186 52.7188C78.4196 52.4753 78.8923 52.2819 79.4365 52.1387C79.988 51.9954 80.5859 51.9238 81.2305 51.9238C81.5312 51.9238 81.9144 51.9453 82.3799 51.9883C82.9385 51.1074 83.5293 50.2767 84.1523 49.4961C84.7754 48.7083 85.4163 48.0208 86.0752 47.4336C86.734 46.8392 87.3965 46.3701 88.0625 46.0264C88.7285 45.6755 89.3838 45.5 90.0283 45.5C90.2861 45.5 90.5726 45.5215 90.8877 45.5645C91.21 45.6074 91.5036 45.6898 91.7686 45.8115L88.3203 62H85.1514ZM88.3203 47.0576C87.9909 47.2367 87.6543 47.4945 87.3105 47.8311C86.974 48.1605 86.6374 48.5544 86.3008 49.0127C85.9714 49.4639 85.6419 49.9688 85.3125 50.5273C84.9831 51.0788 84.6644 51.6624 84.3564 52.2783C84.8005 52.3643 85.2516 52.4717 85.71 52.6006C86.1683 52.7223 86.6123 52.8691 87.042 53.041L88.3203 47.0576ZM93.1758 62L96.3447 47.3047C95.9222 47.319 95.5355 47.4014 95.1846 47.5518C94.8337 47.695 94.5329 47.9385 94.2822 48.2822C94.0316 48.626 93.8346 49.0879 93.6914 49.668C93.5553 50.248 93.4873 50.9785 93.4873 51.8594C93.4873 52.1387 93.5016 52.3678 93.5303 52.5469C93.5661 52.7188 93.6019 52.8584 93.6377 52.9658C93.6807 53.0661 93.7165 53.1449 93.7451 53.2021C93.7809 53.2594 93.7988 53.3096 93.7988 53.3525C93.4193 53.3525 93.0827 53.3167 92.7891 53.2451C92.4954 53.1663 92.2484 53.0446 92.0479 52.8799C91.8473 52.7152 91.6934 52.4967 91.5859 52.2246C91.4857 51.9525 91.4355 51.6159 91.4355 51.2148C91.4355 50.4844 91.5716 49.7754 91.8438 49.0879C92.1159 48.4004 92.5492 47.7917 93.1436 47.2617C93.7451 46.7318 94.5221 46.3057 95.4746 45.9834C96.4271 45.6611 97.5837 45.5 98.9443 45.5C99.1663 45.5 99.4134 45.5143 99.6855 45.543C99.9648 45.5716 100.258 45.6038 100.566 45.6396C100.882 45.6683 101.211 45.6969 101.555 45.7256C101.898 45.7542 102.246 45.7686 102.597 45.7686C102.94 45.7686 103.277 45.7507 103.606 45.7148C103.943 45.6719 104.265 45.6003 104.573 45.5C104.502 45.7292 104.43 45.9798 104.358 46.252C104.294 46.5169 104.194 46.7747 104.058 47.0254C103.922 47.276 103.732 47.5052 103.488 47.7129C103.245 47.9134 102.912 48.0566 102.489 48.1426C101.966 48.1426 101.451 48.1032 100.942 48.0244C100.434 47.9456 99.9219 47.8454 99.4062 47.7236L98.4824 52.0957H101.694L101.34 53.7285H98.1279L96.3447 62H93.1758ZM109.944 62L111.631 54.0186C111.072 53.7607 110.56 53.5745 110.095 53.46C109.636 53.3454 109.167 53.2666 108.688 53.2236C108.272 54.1188 107.889 55.0391 107.538 55.9844C107.194 56.9297 106.894 57.8499 106.636 58.7451C106.385 59.6331 106.188 60.4674 106.045 61.248C105.902 62.0286 105.83 62.7054 105.83 63.2783C105.83 63.6292 105.859 63.8942 105.916 64.0732C105.98 64.2594 106.052 64.4027 106.131 64.5029C105.837 64.5029 105.519 64.4886 105.175 64.46C104.838 64.4313 104.52 64.3418 104.219 64.1914C103.925 64.0482 103.678 63.819 103.478 63.5039C103.284 63.1888 103.188 62.7448 103.188 62.1719C103.188 61.6849 103.263 61.1012 103.413 60.4209C103.571 59.7406 103.793 59.0101 104.079 58.2295C104.366 57.4417 104.706 56.6217 105.1 55.7695C105.493 54.9102 105.934 54.0615 106.421 53.2236C105.726 53.2666 105.157 53.374 104.713 53.5459C104.276 53.7106 103.986 53.9827 103.843 54.3623C103.9 54.3623 103.961 54.4375 104.025 54.5879C104.097 54.7311 104.133 54.8851 104.133 55.0498C104.133 55.3148 104.011 55.526 103.768 55.6836C103.531 55.834 103.241 55.9092 102.897 55.9092C102.704 55.9092 102.525 55.8841 102.36 55.834C102.196 55.7767 102.052 55.6979 101.931 55.5977C101.809 55.4902 101.712 55.3577 101.641 55.2002C101.569 55.0355 101.533 54.8457 101.533 54.6309C101.533 54.2585 101.644 53.9076 101.866 53.5781C102.095 53.2487 102.41 52.9622 102.812 52.7188C103.213 52.4753 103.685 52.2819 104.229 52.1387C104.781 51.9954 105.379 51.9238 106.023 51.9238C106.324 51.9238 106.707 51.9453 107.173 51.9883C107.731 51.1074 108.322 50.2767 108.945 49.4961C109.568 48.7083 110.209 48.0208 110.868 47.4336C111.527 46.8392 112.189 46.3701 112.855 46.0264C113.521 45.6755 114.177 45.5 114.821 45.5C115.079 45.5 115.366 45.5215 115.681 45.5645C116.003 45.6074 116.297 45.6898 116.562 45.8115L113.113 62H109.944ZM113.113 47.0576C112.784 47.2367 112.447 47.4945 112.104 47.8311C111.767 48.1605 111.43 48.5544 111.094 49.0127C110.764 49.4639 110.435 49.9688 110.105 50.5273C109.776 51.0788 109.457 51.6624 109.149 52.2783C109.593 52.3643 110.045 52.4717 110.503 52.6006C110.961 52.7223 111.405 52.8691 111.835 53.041L113.113 47.0576ZM118.108 62L121.095 48.0029L124.35 47.5732L123.275 52.6543H123.447C123.906 52.6543 124.325 52.5326 124.704 52.2891C125.091 52.0456 125.42 51.7376 125.692 51.3652C125.972 50.9928 126.187 50.5811 126.337 50.1299C126.494 49.6787 126.573 49.2419 126.573 48.8193C126.573 48.5114 126.527 48.2178 126.434 47.9385C126.34 47.6592 126.197 47.4157 126.004 47.208C125.811 46.9932 125.56 46.8249 125.252 46.7031C124.951 46.5742 124.586 46.5098 124.156 46.5098C123.261 46.5098 122.448 46.6315 121.718 46.875C120.994 47.1185 120.371 47.473 119.849 47.9385C119.326 48.3968 118.921 48.9554 118.635 49.6143C118.355 50.2731 118.216 51.0215 118.216 51.8594C118.216 52.1387 118.23 52.3678 118.259 52.5469C118.295 52.7188 118.33 52.8584 118.366 52.9658C118.402 53.0661 118.434 53.1449 118.463 53.2021C118.499 53.2594 118.517 53.3096 118.517 53.3525C118.137 53.3525 117.8 53.3167 117.507 53.2451C117.213 53.1663 116.966 53.0446 116.766 52.8799C116.572 52.7152 116.422 52.4967 116.314 52.2246C116.214 51.9525 116.164 51.6159 116.164 51.2148C116.164 50.7279 116.268 50.248 116.476 49.7754C116.69 49.3027 116.98 48.8551 117.346 48.4326C117.718 48.0101 118.151 47.6198 118.646 47.2617C119.147 46.9036 119.68 46.5957 120.246 46.3379C120.819 46.0729 121.413 45.8688 122.029 45.7256C122.652 45.5752 123.272 45.5 123.888 45.5C124.754 45.5 125.499 45.6003 126.122 45.8008C126.752 45.9941 127.271 46.2555 127.68 46.585C128.088 46.9144 128.389 47.2904 128.582 47.7129C128.783 48.1354 128.883 48.5723 128.883 49.0234C128.883 49.36 128.829 49.7038 128.722 50.0547C128.621 50.3984 128.467 50.735 128.26 51.0645C128.059 51.3939 127.812 51.709 127.519 52.0098C127.225 52.3034 126.888 52.5612 126.509 52.7832C126.795 52.8691 127.035 52.9837 127.229 53.127C127.429 53.263 127.587 53.4277 127.701 53.6211C127.816 53.8073 127.898 54.0186 127.948 54.2549C127.998 54.484 128.023 54.7275 128.023 54.9854C128.023 55.4437 127.966 55.9271 127.852 56.4355C127.744 56.9368 127.622 57.4346 127.486 57.9287C127.35 58.4229 127.225 58.8955 127.11 59.3467C127.003 59.7979 126.949 60.1989 126.949 60.5498C126.949 60.8936 127.024 61.1979 127.175 61.4629C127.332 61.7207 127.544 61.8997 127.809 62C127.336 62.1361 126.921 62.2327 126.562 62.29C126.204 62.3473 125.893 62.376 125.628 62.376C125.27 62.376 124.98 62.3294 124.758 62.2363C124.536 62.1504 124.36 62.0394 124.231 61.9033C124.11 61.7601 124.024 61.6025 123.974 61.4307C123.931 61.2516 123.909 61.0762 123.909 60.9043C123.909 60.5319 123.97 60.1022 124.092 59.6152C124.214 59.1211 124.346 58.6126 124.489 58.0898C124.64 57.5599 124.776 57.0371 124.897 56.5215C125.019 56.0059 125.08 55.5368 125.08 55.1143C125.08 54.8923 125.055 54.6917 125.005 54.5127C124.962 54.3265 124.89 54.1689 124.79 54.04C124.69 53.904 124.554 53.8001 124.382 53.7285C124.21 53.6569 124.002 53.6211 123.759 53.6211C123.659 53.6211 123.548 53.6283 123.426 53.6426C123.304 53.6497 123.172 53.6712 123.028 53.707L121.267 62H118.108ZM131.343 62L134.522 47.0576C133.549 47.4587 132.793 48.0602 132.256 48.8623C131.719 49.6644 131.45 50.6634 131.45 51.8594C131.45 52.1387 131.465 52.3678 131.493 52.5469C131.529 52.7188 131.565 52.8584 131.601 52.9658C131.636 53.0661 131.669 53.1449 131.697 53.2021C131.733 53.2594 131.751 53.3096 131.751 53.3525C131.371 53.3525 131.035 53.3167 130.741 53.2451C130.448 53.1663 130.201 53.0446 130 52.8799C129.807 52.7152 129.656 52.4967 129.549 52.2246C129.449 51.9525 129.398 51.6159 129.398 51.2148C129.398 50.7279 129.502 50.248 129.71 49.7754C129.925 49.3027 130.215 48.8551 130.58 48.4326C130.952 48.0101 131.386 47.6198 131.88 47.2617C132.381 46.9036 132.915 46.5957 133.48 46.3379C134.053 46.0729 134.648 45.8688 135.264 45.7256C135.887 45.5752 136.506 45.5 137.122 45.5C137.287 45.5 137.437 45.5036 137.573 45.5107C137.716 45.5179 137.86 45.5286 138.003 45.543L134.501 62H131.343Z" fill="#A3BCE4"/>
</g>
</g>
<defs>
<clipPath id="clip0">
<rect width="139" height="66" fill="white"/>
</clipPath>
<clipPath id="clip1">
<rect width="79" height="52" fill="white" transform="translate(64 14)"/>
</clipPath>
</defs>
</svg>
