<svg width="39" height="40" viewBox="0 0 39 40" fill="none" xmlns="http://www.w3.org/2000/svg">
<g clip-path="url(#clip0)">
<path d="M39 16V9C39 6.8 37.2 5 35 5H29.5C29.5 5.8 28.8 6.5 28 6.5C27.2 6.5 26.5 5.8 26.5 5H3C0.8 5 -1 6.8 -1 9V16C1.2 16 3 17.8 3 20C3 22.2 1.2 24 -1 24V31C-1 33.2 0.8 35 3 35H26.5C26.5 34.2 27.2 33.5 28 33.5C28.8 33.5 29.5 34.2 29.5 35H35C37.2 35 39 33.2 39 31V24C36.8 24 35 22.2 35 20C35 17.8 36.8 16 39 16ZM28 31.5C27.2 31.5 26.5 30.8 26.5 30C26.5 29.2 27.2 28.5 28 28.5C28.8 28.5 29.5 29.2 29.5 30C29.5 30.8 28.8 31.5 28 31.5ZM28 26.5C27.2 26.5 26.5 25.8 26.5 25C26.5 24.2 27.2 23.5 28 23.5C28.8 23.5 29.5 24.2 29.5 25C29.5 25.8 28.8 26.5 28 26.5ZM28 21.5C27.2 21.5 26.5 20.8 26.5 20C26.5 19.2 27.2 18.5 28 18.5C28.8 18.5 29.5 19.2 29.5 20C29.5 20.8 28.8 21.5 28 21.5ZM28 16.5C27.2 16.5 26.5 15.8 26.5 15C26.5 14.2 27.2 13.5 28 13.5C28.8 13.5 29.5 14.2 29.5 15C29.5 15.8 28.8 16.5 28 16.5ZM28 11.5C27.2 11.5 26.5 10.8 26.5 10C26.5 9.2 27.2 8.5 28 8.5C28.8 8.5 29.5 9.2 29.5 10C29.5 10.8 28.8 11.5 28 11.5Z" fill="#FFA726"/>
<path d="M16 13L18.3 17.6L23.4 18.3L19.7 21.9L20.5 27L16 24.6L11.5 27L12.3 21.9L8.6 18.3L13.7 17.6L16 13Z" fill="#F44336"/>
</g>
<defs>
<clipPath id="clip0">
<rect width="40" height="40" fill="white" transform="translate(-1)"/>
</clipPath>
</defs>
</svg>
